<?xml version="1.0" encoding="UTF-8"?> <svg xmlns="http://www.w3.org/2000/svg" viewBox="0 0 807.99 230.8"><path fill="#f68b20" d="M581.23 52.74h18.76l-42.9 122.46h-18.71l42.85-122.46ZM90.88 5.79a23.546 23.546 0 0 1 25.18-.17c24.48 14.09 48.77 28.47 73.25 42.56 7.34 4 14.93 10.42 14.84 19.58.47 30.75.09 61.53.18 92.31.87 9.21-4.94 17.41-12.88 21.48-25.06 14.41-50.16 28.77-75.31 43.08-7.07 4.42-16.31 5.81-23.79 1.59-12.47-6.67-24.34-14.44-36.7-21.34.06-10.57.06-21.1 0-31.67 12.82 7.25 25.21 15.3 38.29 22.12 7.16 3.86 15.71 2 22.26-2.23 16.58-9.64 33.41-18.79 49.87-28.58 6.9-3.7 11.58-11 11.2-18.92 0-21 .49-42.1-.29-63.09-.2-9.7-9.07-15.27-16.6-19.49-16.17-9-31.7-19-48-27.63-6.87-3.9-15.16-2.2-21.54 1.84C74.3 46.79 57.58 56.09 41.1 65.77c-7.08 3.66-12 11-11.58 19.11-.41 34.94.4 69.88.14 104.85-10.51-6.85-26.1-12.14-27.2-26.73-.95-29.88-.08-59.8-.43-89.68C1.39 64.06 5.26 54.47 13.72 50 39.3 35 65.15 20.52 90.88 5.79Z"></path><path fill="#21244c" d="M264.93 196.47v12.39h15.3v4.2h-15.3v16.57h-4.2v-37.34h21.86v4.18h-17.66ZM294.4 211c-.03-10.56 8.5-19.15 19.06-19.18s19.15 8.5 19.18 19.06-8.5 19.15-19.06 19.18h-.1c-10.51-.05-19.02-8.55-19.08-19.06Zm34 0c.02-8.22-6.62-14.9-14.84-14.92-8.22-.02-14.9 6.62-14.92 14.84-.02 8.22 6.62 14.9 14.84 14.92 8.19-.03 14.84-6.65 14.9-14.84Zm19.18 4.14v-22.75h4.23v22.73c0 6.25 4.06 10.8 9.55 10.8s9.56-4.57 9.56-10.8v-22.73h4.22v22.75c0 8.68-5.86 15-13.78 15s-13.78-6.32-13.78-15ZM422 192.29v37.87h-.21l-25.5-28.31v27.78h-4.2v-37.82h.23l25.48 28.29v-27.81h4.2ZM468.59 211c0 11.35-7.38 18.58-19 18.58h-10.33v-37.2h10.36c11.59-.02 18.97 7.23 18.97 18.62Zm-4.22 0c0-8.79-5.77-14.47-14.77-14.47h-6.14v28.85h6.21c8.96 0 14.7-5.62 14.7-14.38Zm40.41 12.47h-20.31l-2.73 6.12h-4.54l17.19-37.78h.46l17.22 37.78h-4.57l-2.72-6.12Zm-1.62-3.64-8.52-19.14-8.53 19.14h17.05Zm41.3-23.29h-10.77v33.05h-4.2v-33.05h-10.83v-4.15h25.8v4.15Zm14.54-4.15h4.2v37.2H559v-37.2ZM578.56 211c-.03-10.56 8.5-19.15 19.06-19.18 10.56-.03 19.15 8.5 19.18 19.06s-8.5 19.15-19.06 19.18h-.09c-10.51-.05-19.02-8.55-19.09-19.06Zm34 0c.02-8.22-6.62-14.9-14.84-14.92s-14.9 6.62-14.92 14.84c-.02 8.22 6.62 14.9 14.84 14.92 8.2-.02 14.85-6.64 14.91-14.84Zm49.49-18.71v37.87h-.2l-25.51-28.31v27.78h-4.2v-37.82h.23l25.48 28.29v-27.81h4.2ZM260.73 60.67h37.42c20.64 0 37.5 16.2 37.5 36s-16.86 35.9-37.5 35.9h-16v34.65h-21.42V60.67Zm53.49 35.84c0-8.07-7.2-14.61-16.07-14.61h-16v29.49l16 .06c8.85.07 16.07-6.67 16.07-14.94Zm128.26 17.59c0 33.06-21 53.16-55.48 53.16h-31V60.74l31-.07c34.45-.07 55.48 20.17 55.48 53.43Zm-21.62-.1c0-20-12.83-32.13-33.93-32.13h-9.58v64h9.78c20.96.04 33.73-12 33.73-31.87Zm63.72-32.24v21.5h36.77v21.35h-36.77v42.79h-21.42v-107h64.27v21.36h-42.85Zm73.47 94.78H536.5L580.29 51.4h21.61l-43.85 125.14Zm-17.78-2.67h15.88l42-119.8h-15.96l-41.92 119.8Zm76.25-46.01V60.67h21.56v67.12c-.24 10.81 8.32 19.77 19.13 20.02 10.81.24 19.77-8.32 20.02-19.13V60.67h21.55v67.19c0 24.13-18.45 41.72-41.13 41.72s-41.13-17.58-41.13-41.72Zm161.53 24.53h-42.66l-6.81 14.87h-23.14L756.36 58h.64l51 109.23h-23.21l-6.74-14.84Zm-8.34-18.25-13-28.5-13 28.5h26Zm-667.33 95.95c-3.74.03-7.42-.9-10.69-2.71-7-3.72-13.88-7.87-20.56-11.88-5.26-3.15-10.7-6.42-16.13-9.46l-.69-.38v-34.74l2 1.13c5 2.84 10 5.8 14.94 8.77 7.56 4.52 15.38 9.19 23.3 13.32 6 3.22 13.78 2.41 20.93-2.16 7.14-4.16 14.28-8.2 21.42-12.23 9.38-5.31 19.08-10.79 28.48-16.38 6.77-3.63 10.9-10.57 10.56-17.7 0-5.94 0-11.82.07-17.7.1-14.91.2-30.31-.36-45.41-.19-8.84-8.32-14.12-15.92-18.37-7.09-3.94-14.2-8.19-21.07-12.19-8.74-5.19-17.78-10.56-26.89-15.38-5.77-3.32-13.3-2.62-20.2 1.74-6.89 4-13.76 7.89-20.63 11.79-9.59 5.46-19.5 11.1-29.17 16.77-7 3.64-11.28 10.65-10.92 17.89-.21 18.68-.08 37.59 0 55.88.11 16.07.23 32.69.11 49v2.44l-2-1.33c-2.09-1.36-4.36-2.64-6.77-4-9.42-5.34-20.11-11.38-21-23.73-.58-18-.49-36.29-.41-54 .06-11.74.12-23.88 0-35.8C0 62.85 4.84 53.19 13.1 48.82c17.47-10.22 35.41-20.43 52.77-30.3 8.09-4.62 16.19-9.25 24.32-13.88 8.08-5.2 18.45-5.26 26.59-.15 12.17 7 24.35 14.12 36.53 21.23C165.49 32.83 177.72 40 190 47c10.21 5.59 15.58 12.77 15.51 20.75.3 19.76.25 39.89.2 59.36 0 11-.06 22 0 32.93.86 9.05-4.48 18-13.6 22.68-14.78 8.5-29.61 16.99-44.5 25.47-10.25 5.85-20.5 11.71-30.75 17.58a27.44 27.44 0 0 1-14.48 4.32ZM57 204.1c5.24 3 10.46 6.08 15.52 9.11C79.16 217.2 86 221.33 93 225c6.49 3.66 15.09 3.06 22.45-1.54 10.3-5.9 20.57-11.77 30.81-17.61 14.86-8.49 29.71-16.99 44.54-25.5 8.21-4.2 13-12.12 12.22-20.2v-33.07c0-19.45.1-39.58-.2-59.34.08-8.79-7.65-14.87-14.15-18.43A3373.94 3373.94 0 0 1 152 28c-12.16-7.17-24.36-14.24-36.61-21.23a22.11 22.11 0 0 0-23.79.15h-.06c-8.11 4.67-16.23 9.3-24.35 13.89-17.35 9.89-35.28 20.1-52.79 30.34C7 55.06 2.71 63.71 3.36 73.24c.15 12 .09 24.17 0 35.92-.08 17.64-.17 35.89.41 53.81.82 10.86 10.41 16.29 19.69 21.54 1.68 1 3.3 1.88 4.85 2.81.1-15.56 0-31.33-.11-46.61-.13-18.3-.26-37.23 0-55.85-.42-8.2 4.41-16.2 12.29-20.28C50.1 58.93 60 53.29 69.62 47.83c6.86-3.89 13.71-7.8 20.56-11.75 7.72-4.88 16.28-5.59 22.87-1.85 9.14 4.83 18.21 10.21 27 15.42 6.86 4.07 13.95 8.28 21 12.2 8.25 4.62 17.07 10.4 17.29 20.63.56 15.13.46 30.57.36 45.5 0 5.88-.08 11.76-.08 17.62.39 8.1-4.28 16-11.9 20.09-9.38 5.58-19.09 11.07-28.48 16.38-7.13 4-14.26 8.06-21.35 12.18-7.93 5.08-16.76 5.93-23.57 2.25-8-4.15-15.83-8.85-23.42-13.39-4.28-2.56-8.57-5.12-12.89-7.6-.01 9.54-.01 19.05-.01 28.59ZM98.76 174v-6.93c-.05-17.33-.08-34.64-.08-51.93v-2.32l2-1.16c6.09-3.5 12.2-6.99 18.32-10.47 8.73-4.98 17.45-9.98 26.15-15l6-3.51V144l-2 1.17c-7.64 4.41-15.31 8.79-23 13.14-7.16 4.08-14.31 8.15-21.45 12.28L98.76 174Zm7.92-56.54c0 14.23.02 28.46.07 42.67 5.16-2.96 10.32-5.91 15.49-8.85 6.97-4 13.94-8 20.9-12V96.54c-6.72 3.88-13.45 7.74-20.18 11.57-5.43 3.14-10.85 6.26-16.28 9.37v-.02Zm23.73-48.22-18.58 10.6-11.06 6.3C94.19 89.9 87.6 93.67 81 97.44l-5 2.92v60.73l8-4.58V105l1-.58c6.57-3.78 13.14-7.54 19.72-11.29l11.06-6.3 14.6-8.33v-9.26h.03Zm-40.03-2-10 5.7c-6.58 3.76-13.16 7.53-19.74 11.3l-5.06 2.91v62.31l8-4.58v-53.1l1-.58c6.57-3.78 13.14-7.54 19.73-11.29l10-5.7L108.7 66v-9.21L90.38 67.24Z"></path></svg> 